
<?xml version="1.0" encoding="UTF-8"?>
<!DOCTYPE svg PUBLIC "-//W3C//DTD SVG 1.1//EN" "http://www.w3.org/Graphics/SVG/1.1/DTD/svg11.dtd">
<svg xmlns="http://www.w3.org/2000/svg" version="1.1" width="313px" height="386px" style="shape-rendering:geometricPrecision; text-rendering:geometricPrecision; image-rendering:optimizeQuality; fill-rule:evenodd; clip-rule:evenodd" xmlns:xlink="http://www.w3.org/1999/xlink">
<g><path style="opacity:0.983" fill="#2f2d41" d="M 166.5,82.5 C 163.87,87.7404 160.704,92.7404 157,97.5C 157.318,91.2122 157.484,84.8789 157.5,78.5C 157.5,77.8333 157.167,77.5 156.5,77.5C 153.833,77.5 151.167,77.5 148.5,77.5C 146.598,75.8489 144.598,75.5155 142.5,76.5C 139.119,76.4595 135.786,76.7929 132.5,77.5C 131.833,77.5 131.5,77.8333 131.5,78.5C 130.034,79.347 129.2,80.6803 129,82.5C 126.506,101.078 125.006,101.078 124.5,82.5C 124.987,81.5266 125.487,80.5266 126,79.5C 126.316,72.1521 126.816,64.8187 127.5,57.5C 124.325,41.8246 130.825,33.4913 147,32.5C 148.436,32.5589 149.769,32.8922 151,33.5C 151.803,30.7558 152.803,28.0891 154,25.5C 154.804,24.1955 155.971,23.5288 157.5,23.5C 161.671,25.6159 166.004,27.4492 170.5,29C 172.489,31.9557 174.656,34.7891 177,37.5C 178.688,43.3109 177.188,47.9776 172.5,51.5C 171.745,62.0922 169.745,72.4255 166.5,82.5 Z M 142.5,76.5 C 144.598,75.5155 146.598,75.8489 148.5,77.5C 146.379,77.6747 144.379,77.3414 142.5,76.5 Z"/></g>
<g><path style="opacity:0.976" fill="#9d5e67" d="M 99.5,77.5 C 99.6655,81.5138 99.4988,85.5138 99,89.5C 98.5831,90.756 97.7498,91.4226 96.5,91.5C 90.4085,90.4547 84.7419,88.288 79.5,85C 75.5919,80.1045 75.9252,75.4378 80.5,71C 90.7765,64.3893 100.777,57.3893 110.5,50C 120.473,46.9761 124.306,50.4761 122,60.5C 119.426,63.0273 116.26,64.194 112.5,64C 106.697,67.6376 101.03,71.471 95.5,75.5C 96.5769,76.7051 97.9102,77.3718 99.5,77.5 Z"/></g>
<g><path style="opacity:1" fill="#9c5f68" d="M 147.5,47.5 C 149.103,50.5624 151.77,52.0624 155.5,52C 162.099,57.9242 162.099,63.9242 155.5,70C 142.649,75.2427 134.983,71.076 132.5,57.5C 132.54,55.5711 132.873,53.7378 133.5,52C 137.312,53.3057 141.312,53.639 145.5,53C 147.155,51.5557 147.822,49.7224 147.5,47.5 Z"/></g>
<g><path style="opacity:0.998" fill="#6c62fd" d="M 124.5,82.5 C 125.006,101.078 126.506,101.078 129,82.5C 129.2,80.6803 130.034,79.347 131.5,78.5C 132.167,78.5 132.5,78.1667 132.5,77.5C 135.786,76.7929 139.119,76.4595 142.5,76.5C 144.379,77.3414 146.379,77.6747 148.5,77.5C 151.167,77.5 153.833,77.5 156.5,77.5C 157.167,77.5 157.5,77.8333 157.5,78.5C 157.484,84.8789 157.318,91.2122 157,97.5C 160.704,92.7404 163.87,87.7404 166.5,82.5C 168.679,82.84 170.512,83.84 172,85.5C 175.966,84.038 179.466,84.8713 182.5,88C 185.983,93.1455 189.817,97.9789 194,102.5C 194.49,103.793 194.657,105.127 194.5,106.5C 190.447,107.35 186.447,108.516 182.5,110C 180.676,110.66 179.343,111.827 178.5,113.5C 175.549,113.018 173.382,111.352 172,108.5C 171.734,112.985 170.9,117.318 169.5,121.5C 167.924,122.075 166.258,122.408 164.5,122.5C 160.704,120.84 156.704,120.34 152.5,121C 148.335,125.352 148.669,129.352 153.5,133C 158.467,132.839 163.467,132.672 168.5,132.5C 167.19,142.236 169.19,151.236 174.5,159.5C 165.138,166.086 154.805,168.086 143.5,165.5C 135.768,162.806 128.102,159.806 120.5,156.5C 120.73,151.198 121.73,146.032 123.5,141C 123.37,139.941 122.87,139.108 122,138.5C 121.348,126.669 119.681,115.002 117,103.5C 111.912,100.242 106.412,97.7417 100.5,96C 98.6156,94.9513 97.2823,93.4513 96.5,91.5C 97.7498,91.4226 98.5831,90.756 99,89.5C 99.4988,85.5138 99.6655,81.5138 99.5,77.5C 99.56,76.9569 99.8933,76.6236 100.5,76.5C 106.155,78.3967 111.822,80.23 117.5,82C 119.81,82.4966 122.143,82.6633 124.5,82.5 Z"/></g>
<g><path style="opacity:0.982" fill="#9e606b" d="M 194.5,106.5 C 196.923,110.345 199.09,114.345 201,118.5C 202.569,123.625 201.069,127.459 196.5,130C 187.175,130.999 177.841,131.833 168.5,132.5C 163.467,132.672 158.467,132.839 153.5,133C 148.669,129.352 148.335,125.352 152.5,121C 156.704,120.34 160.704,120.84 164.5,122.5C 166.258,122.408 167.924,122.075 169.5,121.5C 174.315,121.078 178.982,120.078 183.5,118.5C 182.097,116.43 180.43,114.763 178.5,113.5C 179.343,111.827 180.676,110.66 182.5,110C 186.447,108.516 190.447,107.35 194.5,106.5 Z"/></g>
<g><path style="opacity:0.998" fill="#945c6d" d="M 120.5,156.5 C 128.102,159.806 135.768,162.806 143.5,165.5C 135.781,165.604 128.448,164.104 121.5,161C 120.663,159.989 120.33,158.822 120.5,157.5C 120.5,157.167 120.5,156.833 120.5,156.5 Z"/></g>
<g><path style="opacity:0.99" fill="#2e2d40" d="M 120.5,157.5 C 120.33,158.822 120.663,159.989 121.5,161C 128.448,164.104 135.781,165.604 143.5,165.5C 154.805,168.086 165.138,166.086 174.5,159.5C 178.887,170.482 183.387,181.482 188,192.5C 190.147,199.743 189.981,206.909 187.5,214C 187.645,214.772 187.978,215.439 188.5,216C 186.167,217.243 185.5,218.909 186.5,221C 179.968,256.099 173.968,291.265 168.5,326.5C 164.972,324.325 161.305,323.992 157.5,325.5C 155.836,324.051 155.002,322.051 155,319.5C 154.816,310.124 154.15,300.791 153,291.5C 150.669,295.33 147.502,298.33 143.5,300.5C 142.833,300.167 142.167,299.833 141.5,299.5C 140.672,294.868 140.172,290.202 140,285.5C 137.988,284.434 137.488,283.1 138.5,281.5C 141.5,280.5 143.5,278.5 144.5,275.5C 147.617,275.642 150.117,276.976 152,279.5C 151.452,255.698 149.785,232.032 147,208.5C 142.184,210.997 137.351,213.497 132.5,216C 131.663,217.011 131.33,218.178 131.5,219.5C 129.011,219.298 126.677,219.798 124.5,221C 117.956,226.76 110.956,231.76 103.5,236C 114.025,245.196 124.525,254.362 135,263.5C 135.692,264.437 135.525,265.103 134.5,265.5C 130.237,266.764 127.237,269.431 125.5,273.5C 123.493,275.271 121.326,275.604 119,274.5C 105.087,263.577 90.9201,253.077 76.5,243C 72.6518,237.452 71.4851,231.285 73,224.5C 74.4578,222.04 76.2911,219.873 78.5,218C 91.5157,208.064 104.682,198.23 118,188.5C 118.333,178.5 118.667,168.5 119,158.5C 119.383,157.944 119.883,157.611 120.5,157.5 Z M 144.5,275.5 C 140.186,273.037 136.853,269.703 134.5,265.5C 135.525,265.103 135.692,264.437 135,263.5C 124.525,254.362 114.025,245.196 103.5,236C 110.956,231.76 117.956,226.76 124.5,221C 126.677,219.798 129.011,219.298 131.5,219.5C 131.33,218.178 131.663,217.011 132.5,216C 137.351,213.497 142.184,210.997 147,208.5C 149.785,232.032 151.452,255.698 152,279.5C 150.117,276.976 147.617,275.642 144.5,275.5 Z"/></g>
<g><path style="opacity:0.944" fill="#9d5f67" d="M 134.5,265.5 C 136.853,269.703 140.186,273.037 144.5,275.5C 143.5,278.5 141.5,280.5 138.5,281.5C 133.999,279.084 129.666,276.417 125.5,273.5C 127.237,269.431 130.237,266.764 134.5,265.5 Z"/></g>
<g><path style="opacity:0.881" fill="#f0f0f1" d="M 109.5,297.5 C 114.647,296.835 116.98,299.168 116.5,304.5C 116.543,309.287 114.377,312.62 110,314.5C 107.649,317.886 105.482,321.386 103.5,325C 97.6174,326.922 93.4507,325.089 91,319.5C 90.8143,314.16 91.1477,308.826 92,303.5C 94.0483,301.213 96.2149,301.046 98.5,303C 101.867,306.201 104.2,310.034 105.5,314.5C 106.946,313.829 107.612,312.662 107.5,311C 107.037,308.611 106.37,306.277 105.5,304C 106.25,301.429 107.583,299.262 109.5,297.5 Z"/></g>
<g><path style="opacity:0.973" fill="#9b5f68" d="M 168.5,326.5 C 168.211,332.591 168.545,338.591 169.5,344.5C 166.061,344.747 162.728,344.414 159.5,343.5C 158.669,337.521 158.003,331.521 157.5,325.5C 161.305,323.992 164.972,324.325 168.5,326.5 Z"/></g>
<g><path style="opacity:0.903" fill="#efeff0" d="M 222.5,357.5 C 212.833,358.833 203.167,358.833 193.5,357.5C 196.187,357.664 198.854,357.497 201.5,357C 200.378,353.515 200.544,350.015 202,346.5C 205.242,343.759 208.242,344.092 211,347.5C 211.216,349.384 211.883,351.051 213,352.5C 216.498,339.637 214.498,327.637 207,316.5C 204.294,314.129 201.961,311.463 200,308.5C 198.755,301.459 201.588,298.626 208.5,300C 209.912,301.413 210.912,303.08 211.5,305C 210.384,307.406 209.384,309.906 208.5,312.5C 208.728,314.397 209.728,315.73 211.5,316.5C 213.146,311.392 215.813,306.892 219.5,303C 221.567,302.464 223.401,302.964 225,304.5C 225.667,310.5 225.667,316.5 225,322.5C 222.772,325.078 219.939,326.411 216.5,326.5C 216.336,329.187 216.503,331.854 217,334.5C 217.196,336.286 218.029,337.619 219.5,338.5C 223.523,335.238 228.023,332.905 233,331.5C 234.299,332.09 235.132,333.09 235.5,334.5C 234.37,339.954 232.203,344.954 229,349.5C 225.864,353.188 222.031,354.355 217.5,353C 215.963,354.11 215.297,355.61 215.5,357.5C 217.833,357.5 220.167,357.5 222.5,357.5 Z"/></g>
<g><path style="opacity:0.977" fill="#302e41" d="M 159.5,343.5 C 162.728,344.414 166.061,344.747 169.5,344.5C 170.2,348.798 170.533,353.131 170.5,357.5C 170.5,358.167 170.167,358.5 169.5,358.5C 162.5,358.5 155.5,358.5 148.5,358.5C 148.5,358.167 148.5,357.833 148.5,357.5C 148.343,356.127 148.51,354.793 149,353.5C 153.785,351.209 157.285,347.876 159.5,343.5 Z"/></g>
<g><path style="opacity:0.178" fill="#dedad8" d="M 109.5,344.5 C 111.144,344.286 112.644,344.62 114,345.5C 115.124,348.442 115.458,351.442 115,354.5C 114.333,352.5 113.667,350.5 113,348.5C 110.929,347.897 109.762,346.564 109.5,344.5 Z"/></g>
<g><path style="opacity:0.648" fill="#c7c7c8" d="M 170.5,357.5 C 178.167,357.5 185.833,357.5 193.5,357.5C 203.167,358.833 212.833,358.833 222.5,357.5C 228.167,357.5 233.833,357.5 239.5,357.5C 239.67,358.822 239.337,359.989 238.5,361C 213.395,361.449 188.395,361.615 163.5,361.5C 165.156,359.94 167.156,358.94 169.5,358.5C 170.167,358.5 170.5,358.167 170.5,357.5 Z"/></g>
<g><path style="opacity:0.557" fill="#b6b5b6" d="M 148.5,357.5 C 148.5,357.833 148.5,358.167 148.5,358.5C 149.551,359.222 150.218,360.222 150.5,361.5C 127.35,361.989 104.35,361.489 81.5,360C 82.1667,359.333 82.8333,358.667 83.5,358C 90.3699,357.779 97.2032,357.279 104,356.5C 118.634,357.336 133.467,357.669 148.5,357.5 Z"/></g>
<g><path style="opacity:0.558" fill="#6f6f7b" d="M 148.5,358.5 C 155.5,358.5 162.5,358.5 169.5,358.5C 167.156,358.94 165.156,359.94 163.5,361.5C 159.167,360.167 154.833,360.167 150.5,361.5C 150.218,360.222 149.551,359.222 148.5,358.5 Z"/></g>
</svg>
